PathFileType	4	(X/Y/Z)	./resultDataOpenSim/trcMotMarkerGrf/sub09/qtm-13-01.trc
DataRate	CameraRate	NumFrames	NumMarkers	Units	OrigDataRate	OrigDataStartFrame	OrigNumFrames
250.000000	250.000000	8	24	m	250.000000	269	536
Frame#	Time	L.Toe.Tip			R.Toe.Tip			L.Ankle.Lat			R.Ankle.Lat			L.Ankle.Med			R.Ankle.Med			L.Heel			R.Heel			L.Knee.Lat			R.Knee.Lat			L.Knee.Med			R.Knee.Med			L.Thigh.Upper			R.Thigh.Upper			L.ASIS			R.ASIS			V.Sacral			L.Acromium			R.Acromium			C7			L.Elbow			R.Elbow			L.Wrist.Lat			R.Wrist.Lat
		X1	Y1	Z1	X2	Y2	Z2	X3	Y3	Z3	X4	Y4	Z4	X5	Y5	Z5	X6	Y6	Z6	X7	Y7	Z7	X8	Y8	Z8	X9	Y9	Z9	X10	Y10	Z10	X11	Y11	Z11	X12	Y12	Z12	X13	Y13	Z13	X14	Y14	Z14	X15	Y15	Z15	X16	Y16	Z16	X17	Y17	Z17	X18	Y18	Z18	X19	Y19	Z19	X20	Y20	Z20	X21	Y21	Z21	X22	Y22	Z22	X23	Y23	Z23	X24	Y24	Z24

269	1.072	0.15969188	-0.0099375491	0.051007355	0.48281504	0.13754074	0.13785415	0.018803912	0.031927914	-0.010836491	0.33540854	0.15417253	0.1564378	0.031994326	0.050245703	0.087321907	0.36108313	0.19200587	0.065724185	-0.059564717	0.0025135574	0.031388613	0.27234588	0.12955588	0.10036397	0.13701406	0.43273657	-0.06770058	0.44985646	0.58539419	0.20972476	0.12167343	0.43907122	0.057447003	0.45427142	0.57460452	0.083419836	0.17729621	0.8516636	-0.1309854	0.16111626	0.87495884	0.24084692	0.26503191	0.93676662	-0.069291977	0.23486084	0.96025677	0.17214253	0.082728461	1.0024466	0.026668115	0.26964193	1.3980472	-0.11588697	0.19275604	1.415815	0.20473298	0.16774961	1.4541586	0.029993428	0.14267817	1.0561748	-0.20481411	0.021260977	1.0952571	0.26943573	0.31118999	0.84901383	-0.21466368	0.12647925	0.85308573	0.34166646
270	1.076	0.15975214	-0.0099575298	0.050974817	0.50247606	0.13781585	0.13720356	0.018712554	0.032410418	-0.010552312	0.35447527	0.15037328	0.1555574	0.032455576	0.050716588	0.087566046	0.37932391	0.18900773	0.064898548	-0.059515721	0.0032964658	0.032166338	0.29243489	0.12406652	0.099202558	0.13820748	0.43289221	-0.067775756	0.45616441	0.58583121	0.20941558	0.12355529	0.43925425	0.05675587	0.46041968	0.57458257	0.083065863	0.18156539	0.85141069	-0.13091432	0.16724396	0.8749677	0.24113675	0.27003216	0.93628942	-0.069686606	0.24078453	0.95993755	0.17196724	0.088266546	1.0023599	0.027071839	0.27521333	1.3977599	-0.11576635	0.19871215	1.4154606	0.20493002	0.17356776	1.4538356	0.030231399	0.14852717	1.0556436	-0.2044697	0.026907218	1.0951525	0.26928987	0.31790828	0.8490183	-0.21428427	0.13153849	0.85271371	0.34176836
271	1.08	0.15981243	-0.0099776891	0.050935368	0.52197415	0.13810796	0.13652595	0.018631663	0.032903479	-0.010332056	0.37351606	0.14680294	0.15461568	0.032887424	0.051169363	0.087806568	0.39760127	0.18617927	0.063985104	-0.059370769	0.0040349766	0.03293579	0.31253838	0.11890486	0.0979288	0.13936731	0.43306129	-0.067848887	0.46231062	0.58606408	0.20915785	0.12541043	0.43944412	0.056235358	0.4663932	0.57434395	0.082826559	0.18584308	0.85112483	-0.13081759	0.17334259	0.87494417	0.24142278	0.2750915	0.93579588	-0.070062269	0.2467488	0.95958325	0.17179089	0.093808943	1.0022412	0.027475023	0.28078082	1.3974563	-0.11566203	0.20469379	1.41507	0.20511635	0.17939379	1.4534873	0.030455061	0.15431914	1.0550757	-0.20406057	0.032606079	1.0950145	0.26917771	0.3245928	0.8489995	-0.21390734	0.13659266	0.8523053	0.34185555
272	1.084	0.15986992	-0.0099985881	0.050891547	0.54129962	0.13841194	0.13581702	0.01857276	0.033400142	-0.010122346	0.39249864	0.14347898	0.15364864	0.033297991	0.051617563	0.088045605	0.41587657	0.18353824	0.063012243	-0.059183165	0.0047610323	0.033657219	0.3326461	0.11407785	0.096522124	0.14045501	0.43324495	-0.067919365	0.46827817	0.58607468	0.20895566	0.12730973	0.4397377	0.055899621	0.47223654	0.57389663	0.082658988	0.19012166	0.85081045	-0.13068807	0.17942614	0.87488381	0.24170849	0.28021247	0.93528794	-0.07041791	0.25275387	0.95919431	0.17161594	0.099415996	1.0020499	0.027949644	0.28634807	1.3971384	-0.11557209	0.21070158	1.4146415	0.20529483	0.18522424	1.4530999	0.03067111	0.16013224	1.0544793	-0.20367525	0.038343403	1.0948406	0.26910222	0.33124465	0.84895871	-0.21352687	0.14163032	0.85185658	0.34191932
273	1.088	0.15992218	-0.010022653	0.050847865	0.56045183	0.13873492	0.13508061	0.018545084	0.033899784	-0.0098892853	0.41134951	0.14041544	0.15267493	0.033689184	0.052075868	0.088283972	0.43411145	0.18110202	0.06200571	-0.059019631	0.005513787	0.034274115	0.35273517	0.1095887	0.094961799	0.14145804	0.4334402	-0.067987892	0.47407443	0.58586226	0.20880722	0.12918448	0.44012273	0.055630672	0.47797449	0.5732533	0.08253481	0.19439686	0.85047698	-0.13052496	0.18549718	0.87477779	0.24199554	0.28539013	0.93476461	-0.070748647	0.25878907	0.95876737	0.17143936	0.10527978	1.0017619	0.028710443	0.29191821	1.3968011	-0.11549264	0.21674356	1.4141743	0.20546916	0.19105581	1.4526721	0.03088409	0.16599486	1.0538561	-0.20333307	0.04411368	1.0946331	0.26906341	0.33786603	0.84889161	-0.21314546	0.14664528	0.85135877	0.34195417
274	1.092	0.15996794	-0.010049213	0.050808671	0.57943586	0.1390844	0.13432724	0.018548714	0.034409214	-0.009644948	0.43000279	0.13761537	0.1516457	0.034062404	0.052552105	0.08850914	0.45228478	0.17888527	0.060972561	-0.058904796	0.0063078104	0.034777479	0.37273768	0.10545265	0.093290314	0.14240711	0.43364	-0.068061574	0.47971163	0.58543772	0.20870166	0.13092707	0.44049101	0.055458802	0.48361114	0.57243572	0.082444336	0.19866422	0.85012873	-0.13031985	0.19155121	0.87462099	0.24228288	0.29061382	0.93421877	-0.071038786	0.26484545	0.95829874	0.17125783	0.11158662	1.0013619	0.029947261	0.29749268	1.3964365	-0.1154218	0.22282434	1.4136707	0.20564032	0.19689095	1.4522133	0.031091471	0.17189335	1.0532046	-0.20300277	0.049920975	1.0943938	0.26905865	0.34445926	0.84879439	-0.2127671	0.15163976	0.85080571	0.34196118
275	1.096	0.16000583	-0.010067623	0.050774652	0.59826073	0.13945117	0.13356013	0.018573638	0.034936049	-0.0094103398	0.44843163	0.13506818	0.15048918	0.034434452	0.053049353	0.088690285	0.47038789	0.17689561	0.059908916	-0.058822199	0.0071387178	0.035204274	0.39257122	0.10169115	0.09159129	0.1433739	0.43384409	-0.068161033	0.48518148	0.58479876	0.20862018	0.13251869	0.44075768	0.055477205	0.48914828	0.57146866	0.082391995	0.20290393	0.849766	-0.13009788	0.19758469	0.87441314	0.24256783	0.29588612	0.93363838	-0.071258911	0.27092515	0.9577859	0.17107435	0.11823325	1.0008427	0.031506719	0.30307192	1.3960379	-0.11536105	0.22894102	1.4131344	0.20580837	0.20273587	1.451725	0.031290622	0.17780045	1.0525262	-0.20265706	0.055774423	1.0941198	0.26908557	0.35103031	0.84866592	-0.21238924	0.1566239	0.85019803	0.34194609
276	1.1	0.16003394	-0.01006282	0.050739115	0.61694566	0.13979687	0.13275804	0.018606785	0.035488541	-0.0091874673	0.46667115	0.13274976	0.14919548	0.03482628	0.053567703	0.088808295	0.48840709	0.17513509	0.05881892	-0.058745783	0.00800446	0.035592948	0.41219646	0.098314817	0.089899281	0.14442785	0.4340698	-0.068302015	0.49047807	0.58393486	0.20854935	0.13401615	0.44093863	0.055571121	0.49459395	0.5703684	0.082391548	0.20710201	0.8493909	-0.129933	0.20360103	0.87415116	0.24284727	0.30123505	0.93301406	-0.071382247	0.27703757	0.95722698	0.17089565	0.12481485	1.0002449	0.03291944	0.30865601	1.3956026	-0.11531287	0.23508561	1.4125662	0.20597551	0.20860087	1.4512067	0.03149122	0.18369252	1.0518226	-0.20229997	0.061674652	1.0938099	0.26914099	0.35758517	0.84850667	-0.21200751	0.16160696	0.84954336	0.34191377
